M48
;Layer_Color=9474304
;FILE_FORMAT=2:4
INCH,LZ
;TYPE=PLATED
T1F00S00C0.0180
T2F00S00C0.0236
T3F00S00C0.0276
T4F00S00C0.0300
T5F00S00C0.0402
T6F00S00C0.0453
T7F00S00C0.0650
T8F00S00C0.0669
T9F00S00C0.0670
T10F00S00C0.0984
T11F00S00C0.1220
T12F00S00C0.1900
;TYPE=NON_PLATED
T13F00S00C0.0591
T14F00S00C0.0787
%
T01
X03694Y01401
X04888Y01935
X051423Y01925
X0516Y02153
X05224Y02149
X05237Y02608
X05295Y02565
X0543Y025133
X05243Y02749
X05123Y02738
X04979Y02727
X04914Y0273
X0486Y02737
X04823Y02745
X0477Y02715
X047487Y02536
X047431Y02284
X04694Y02317
X04968Y02492
X05Y02561
X05024Y02874
X05351Y02902
X055144Y0191
X05334Y016132
X046463Y02205
X04241Y02173
X04103Y02168
X04013Y02189
X04042Y0231
X04011Y02381
X04103Y02375
X04111Y02523
X040422Y02508
X04139Y02657
X04183Y02796
X04342Y02624
X04381Y024229
X04276Y0242
X04326Y02356
X03906Y02349
X03885Y02389
X03769Y0223
X03791Y02112
X03852Y02036
X03791Y01909
X03946Y01873
X04052Y01856
X0414Y01794
X04224Y019112
X03596Y02458
X037325Y026834
X03695Y02786
X03813Y028204
X03479Y02913
X03315Y02942
X03244Y02838
X03401Y026834
X030172Y02703
X02821Y02761
X02755Y02788
X02819Y02961
X02879Y03044
X0285Y03097
X021Y031
X02527Y02005
X02418Y03314
X02502Y03816
X02584Y03972
X02691Y04036
X030483Y03292
X03101Y03327
X02998Y03156
X031483Y03363
Y03587
X03911Y037661
X044873Y03327
X04836Y03292
X04865Y03156
X05024Y03363
X05033Y03691
X05025Y03746
X04924Y037661
X04895Y03587
T02
X03734Y01196
X03834
X03934
X04034
X04134
Y01596
X04034
X03934
X03834
X03734
T03
X054912Y024503
Y025133
Y025763
X055384Y025448
Y024818
T04
X03638Y020999
Y02292
T05
X043112Y02702
X044096
X04508
Y028004
X044096
X043112
T06
X044198Y018623
T07
X052466Y018623
T08
X0569Y023696
Y02657
T09
X021454Y036277
X02106Y03797
X022005Y038757
X02417
X024958Y039742
Y036277
T10
X037317Y029836
X045585
Y043104
X037317
T11
X02181Y011121
X05616
Y029221
X02181Y042971
T12
X02348Y01611
X02355Y02594
T13
X027586Y033844
T14
X03231Y03973
M30
