%FSLAX24Y24*%
%MOIN*%
G70*
G01*
G75*
G04 Layer_Color=8388736*
%ADD10R,0.0551X0.1673*%
%ADD11O,0.0551X0.0098*%
%ADD12R,0.0551X0.0098*%
G04:AMPARAMS|DCode=13|XSize=66.9mil|YSize=51.2mil|CornerRadius=12.8mil|HoleSize=0mil|Usage=FLASHONLY|Rotation=90.000|XOffset=0mil|YOffset=0mil|HoleType=Round|Shape=RoundedRectangle|*
%AMROUNDEDRECTD13*
21,1,0.0669,0.0256,0,0,90.0*
21,1,0.0413,0.0512,0,0,90.0*
1,1,0.0256,0.0128,0.0207*
1,1,0.0256,0.0128,-0.0207*
1,1,0.0256,-0.0128,-0.0207*
1,1,0.0256,-0.0128,0.0207*
%
%ADD13ROUNDEDRECTD13*%
%ADD14R,0.0394X0.0492*%
%ADD15R,0.0394X0.0591*%
%ADD16R,0.0276X0.0591*%
%ADD17R,0.0492X0.0394*%
%ADD18R,0.1181X0.3937*%
%ADD19R,0.0335X0.0315*%
%ADD20R,0.0374X0.0236*%
G04:AMPARAMS|DCode=21|XSize=90.6mil|YSize=43.3mil|CornerRadius=10.8mil|HoleSize=0mil|Usage=FLASHONLY|Rotation=270.000|XOffset=0mil|YOffset=0mil|HoleType=Round|Shape=RoundedRectangle|*
%AMROUNDEDRECTD21*
21,1,0.0906,0.0217,0,0,270.0*
21,1,0.0689,0.0433,0,0,270.0*
1,1,0.0217,-0.0108,-0.0344*
1,1,0.0217,-0.0108,0.0344*
1,1,0.0217,0.0108,0.0344*
1,1,0.0217,0.0108,-0.0344*
%
%ADD21ROUNDEDRECTD21*%
%ADD22R,0.0413X0.0551*%
%ADD23R,0.0276X0.0197*%
%ADD24O,0.0512X0.0217*%
%ADD25O,0.0217X0.0512*%
%ADD26R,0.0433X0.0866*%
%ADD27R,0.0315X0.0335*%
%ADD28R,0.0787X0.0354*%
%ADD29R,0.0787X0.1299*%
%ADD30O,0.0177X0.0709*%
%ADD31R,0.0551X0.0413*%
G04:AMPARAMS|DCode=32|XSize=60mil|YSize=20mil|CornerRadius=5mil|HoleSize=0mil|Usage=FLASHONLY|Rotation=270.000|XOffset=0mil|YOffset=0mil|HoleType=Round|Shape=RoundedRectangle|*
%AMROUNDEDRECTD32*
21,1,0.0600,0.0100,0,0,270.0*
21,1,0.0500,0.0200,0,0,270.0*
1,1,0.0100,-0.0050,-0.0250*
1,1,0.0100,-0.0050,0.0250*
1,1,0.0100,0.0050,0.0250*
1,1,0.0100,0.0050,-0.0250*
%
%ADD32ROUNDEDRECTD32*%
%ADD33R,0.0433X0.0217*%
%ADD34R,0.0295X0.0217*%
%ADD35C,0.0140*%
%ADD36C,0.0200*%
%ADD37C,0.0100*%
%ADD38C,0.0250*%
G04:AMPARAMS|DCode=39|XSize=600mil|YSize=600mil|CornerRadius=300mil|HoleSize=0mil|Usage=FLASHONLY|Rotation=0.000|XOffset=0mil|YOffset=0mil|HoleType=Round|Shape=RoundedRectangle|*
%AMROUNDEDRECTD39*
21,1,0.6000,0.0000,0,0,0.0*
21,1,0.0000,0.6000,0,0,0.0*
1,1,0.6000,0.0000,0.0000*
1,1,0.6000,0.0000,0.0000*
1,1,0.6000,0.0000,0.0000*
1,1,0.6000,0.0000,0.0000*
%
%ADD39ROUNDEDRECTD39*%
%ADD40C,0.1969*%
%ADD41C,0.1100*%
%ADD42C,0.1000*%
%ADD43C,0.0950*%
%ADD44C,0.0600*%
%ADD45C,0.0800*%
%ADD46C,0.0591*%
%ADD47R,0.0591X0.0591*%
%ADD48R,0.0472X0.0984*%
%ADD49O,0.0472X0.0984*%
G04:AMPARAMS|DCode=50|XSize=106.3mil|YSize=106.3mil|CornerRadius=53.2mil|HoleSize=0mil|Usage=FLASHONLY|Rotation=180.000|XOffset=0mil|YOffset=0mil|HoleType=Round|Shape=RoundedRectangle|*
%AMROUNDEDRECTD50*
21,1,0.1063,0.0000,0,0,180.0*
21,1,0.0000,0.1063,0,0,180.0*
1,1,0.1063,0.0000,0.0000*
1,1,0.1063,0.0000,0.0000*
1,1,0.1063,0.0000,0.0000*
1,1,0.1063,0.0000,0.0000*
%
%ADD50ROUNDEDRECTD50*%
G04:AMPARAMS|DCode=51|XSize=43.3mil|YSize=43.3mil|CornerRadius=21.7mil|HoleSize=0mil|Usage=FLASHONLY|Rotation=180.000|XOffset=0mil|YOffset=0mil|HoleType=Round|Shape=RoundedRectangle|*
%AMROUNDEDRECTD51*
21,1,0.0433,0.0000,0,0,180.0*
21,1,0.0000,0.0433,0,0,180.0*
1,1,0.0433,0.0000,0.0000*
1,1,0.0433,0.0000,0.0000*
1,1,0.0433,0.0000,0.0000*
1,1,0.0433,0.0000,0.0000*
%
%ADD51ROUNDEDRECTD51*%
%ADD52C,0.0500*%
%ADD53C,0.2400*%
%ADD54C,0.0300*%
G04:AMPARAMS|DCode=55|XSize=37.8mil|YSize=30.7mil|CornerRadius=7.7mil|HoleSize=0mil|Usage=FLASHONLY|Rotation=0.000|XOffset=0mil|YOffset=0mil|HoleType=Round|Shape=RoundedRectangle|*
%AMROUNDEDRECTD55*
21,1,0.0378,0.0154,0,0,0.0*
21,1,0.0224,0.0307,0,0,0.0*
1,1,0.0154,0.0112,-0.0077*
1,1,0.0154,-0.0112,-0.0077*
1,1,0.0154,-0.0112,0.0077*
1,1,0.0154,0.0112,0.0077*
%
%ADD55ROUNDEDRECTD55*%
%ADD56C,0.0098*%
%ADD57C,0.0039*%
%ADD58C,0.0236*%
%ADD59C,0.0079*%
%ADD60C,0.0050*%
%ADD61R,0.0631X0.1753*%
%ADD62O,0.0631X0.0178*%
%ADD63R,0.0631X0.0178*%
G04:AMPARAMS|DCode=64|XSize=74.9mil|YSize=59.2mil|CornerRadius=16.8mil|HoleSize=0mil|Usage=FLASHONLY|Rotation=90.000|XOffset=0mil|YOffset=0mil|HoleType=Round|Shape=RoundedRectangle|*
%AMROUNDEDRECTD64*
21,1,0.0749,0.0256,0,0,90.0*
21,1,0.0413,0.0592,0,0,90.0*
1,1,0.0336,0.0128,0.0207*
1,1,0.0336,0.0128,-0.0207*
1,1,0.0336,-0.0128,-0.0207*
1,1,0.0336,-0.0128,0.0207*
%
%ADD64ROUNDEDRECTD64*%
%ADD65R,0.0474X0.0572*%
%ADD66R,0.0474X0.0671*%
%ADD67R,0.0356X0.0671*%
%ADD68R,0.0572X0.0474*%
%ADD69R,0.1261X0.4017*%
%ADD70R,0.0415X0.0395*%
%ADD71R,0.0454X0.0316*%
G04:AMPARAMS|DCode=72|XSize=98.6mil|YSize=51.3mil|CornerRadius=14.8mil|HoleSize=0mil|Usage=FLASHONLY|Rotation=270.000|XOffset=0mil|YOffset=0mil|HoleType=Round|Shape=RoundedRectangle|*
%AMROUNDEDRECTD72*
21,1,0.0986,0.0217,0,0,270.0*
21,1,0.0689,0.0513,0,0,270.0*
1,1,0.0297,-0.0108,-0.0344*
1,1,0.0297,-0.0108,0.0344*
1,1,0.0297,0.0108,0.0344*
1,1,0.0297,0.0108,-0.0344*
%
%ADD72ROUNDEDRECTD72*%
%ADD73R,0.0493X0.0631*%
%ADD74R,0.0356X0.0277*%
%ADD75O,0.0592X0.0297*%
%ADD76O,0.0297X0.0592*%
%ADD77R,0.0513X0.0946*%
%ADD78R,0.0395X0.0415*%
%ADD79R,0.0867X0.0434*%
%ADD80R,0.0867X0.1379*%
%ADD81O,0.0257X0.0789*%
%ADD82R,0.0631X0.0493*%
G04:AMPARAMS|DCode=83|XSize=68mil|YSize=28mil|CornerRadius=9mil|HoleSize=0mil|Usage=FLASHONLY|Rotation=270.000|XOffset=0mil|YOffset=0mil|HoleType=Round|Shape=RoundedRectangle|*
%AMROUNDEDRECTD83*
21,1,0.0680,0.0100,0,0,270.0*
21,1,0.0500,0.0280,0,0,270.0*
1,1,0.0180,-0.0050,-0.0250*
1,1,0.0180,-0.0050,0.0250*
1,1,0.0180,0.0050,0.0250*
1,1,0.0180,0.0050,-0.0250*
%
%ADD83ROUNDEDRECTD83*%
%ADD84R,0.0513X0.0297*%
%ADD85R,0.0375X0.0297*%
G04:AMPARAMS|DCode=86|XSize=608mil|YSize=608mil|CornerRadius=304mil|HoleSize=0mil|Usage=FLASHONLY|Rotation=0.000|XOffset=0mil|YOffset=0mil|HoleType=Round|Shape=RoundedRectangle|*
%AMROUNDEDRECTD86*
21,1,0.6080,0.0000,0,0,0.0*
21,1,0.0000,0.6080,0,0,0.0*
1,1,0.6080,0.0000,0.0000*
1,1,0.6080,0.0000,0.0000*
1,1,0.6080,0.0000,0.0000*
1,1,0.6080,0.0000,0.0000*
%
%ADD86ROUNDEDRECTD86*%
%ADD87C,0.2049*%
%ADD88C,0.1180*%
%ADD89C,0.1080*%
%ADD90C,0.1030*%
%ADD91C,0.0680*%
%ADD92C,0.0880*%
%ADD93C,0.0671*%
%ADD94R,0.0671X0.0671*%
%ADD95R,0.0552X0.1064*%
%ADD96O,0.0552X0.1064*%
G04:AMPARAMS|DCode=97|XSize=114.3mil|YSize=114.3mil|CornerRadius=57.2mil|HoleSize=0mil|Usage=FLASHONLY|Rotation=180.000|XOffset=0mil|YOffset=0mil|HoleType=Round|Shape=RoundedRectangle|*
%AMROUNDEDRECTD97*
21,1,0.1143,0.0000,0,0,180.0*
21,1,0.0000,0.1143,0,0,180.0*
1,1,0.1143,0.0000,0.0000*
1,1,0.1143,0.0000,0.0000*
1,1,0.1143,0.0000,0.0000*
1,1,0.1143,0.0000,0.0000*
%
%ADD97ROUNDEDRECTD97*%
G04:AMPARAMS|DCode=98|XSize=51.3mil|YSize=51.3mil|CornerRadius=25.7mil|HoleSize=0mil|Usage=FLASHONLY|Rotation=180.000|XOffset=0mil|YOffset=0mil|HoleType=Round|Shape=RoundedRectangle|*
%AMROUNDEDRECTD98*
21,1,0.0513,0.0000,0,0,180.0*
21,1,0.0000,0.0513,0,0,180.0*
1,1,0.0513,0.0000,0.0000*
1,1,0.0513,0.0000,0.0000*
1,1,0.0513,0.0000,0.0000*
1,1,0.0513,0.0000,0.0000*
%
%ADD98ROUNDEDRECTD98*%
%ADD99C,0.0580*%
%ADD100C,0.2480*%
%ADD101C,0.0380*%
D37*
X57735Y15071D02*
Y29221D01*
X57726Y14985D02*
X57735Y15071D01*
X57698Y14903D02*
X57726Y14985D01*
X57653Y14830D02*
X57698Y14903D01*
X57593Y14768D02*
X57653Y14830D01*
X57521Y14720D02*
X57593Y14768D01*
X57440Y14690D02*
X57521Y14720D01*
X57231Y14614D02*
X57440Y14690D01*
X57040Y14501D02*
X57231Y14614D01*
X56873Y14354D02*
X57040Y14501D01*
X56737Y14178D02*
X56873Y14354D01*
X56637Y13980D02*
X56737Y14178D01*
X56575Y13767D02*
X56637Y13980D01*
X56554Y13546D02*
X56575Y13767D01*
X56554Y13546D02*
X56575Y13325D01*
X56637Y13112D01*
X56737Y12914D01*
X56873Y12738D01*
X57040Y12591D01*
X57231Y12478D01*
X57440Y12402D01*
X57521Y12372D01*
X57593Y12324D01*
X57653Y12262D01*
X57698Y12189D01*
X57726Y12107D01*
X57735Y12021D01*
Y11121D02*
Y12021D01*
X57711Y10847D02*
X57735Y11121D01*
X57640Y10582D02*
X57711Y10847D01*
X57524Y10333D02*
X57640Y10582D01*
X57367Y10108D02*
X57524Y10333D01*
X57173Y9914D02*
X57367Y10108D01*
X56948Y9757D02*
X57173Y9914D01*
X56699Y9641D02*
X56948Y9757D01*
X56434Y9570D02*
X56699Y9641D01*
X56160Y9546D02*
X56434Y9570D01*
X25645Y9546D02*
X56160D01*
X25559Y9555D02*
X25645Y9546D01*
X25477Y9583D02*
X25559Y9555D01*
X25404Y9628D02*
X25477Y9583D01*
X25342Y9688D02*
X25404Y9628D01*
X25294Y9760D02*
X25342Y9688D01*
X25264Y9841D02*
X25294Y9760D01*
X25188Y10050D02*
X25264Y9841D01*
X25075Y10241D02*
X25188Y10050D01*
X24928Y10408D02*
X25075Y10241D01*
X24752Y10544D02*
X24928Y10408D01*
X24554Y10644D02*
X24752Y10544D01*
X24341Y10706D02*
X24554Y10644D01*
X24120Y10727D02*
X24341Y10706D01*
X23899D02*
X24120Y10727D01*
X23686Y10644D02*
X23899Y10706D01*
X23488Y10544D02*
X23686Y10644D01*
X23312Y10408D02*
X23488Y10544D01*
X23165Y10241D02*
X23312Y10408D01*
X23052Y10050D02*
X23165Y10241D01*
X22976Y9841D02*
X23052Y10050D01*
X22946Y9760D02*
X22976Y9841D01*
X22898Y9688D02*
X22946Y9760D01*
X22836Y9628D02*
X22898Y9688D01*
X22763Y9583D02*
X22836Y9628D01*
X22681Y9555D02*
X22763Y9583D01*
X22595Y9546D02*
X22681Y9555D01*
X21810Y9546D02*
X22595D01*
X21536Y9570D02*
X21810Y9546D01*
X21271Y9641D02*
X21536Y9570D01*
X21023Y9757D02*
X21271Y9641D01*
X20798Y9914D02*
X21023Y9757D01*
X20604Y10108D02*
X20798Y9914D01*
X20446Y10333D02*
X20604Y10108D01*
X20330Y10582D02*
X20446Y10333D01*
X20259Y10847D02*
X20330Y10582D01*
X20235Y11121D02*
X20259Y10847D01*
X20235Y11121D02*
Y42971D01*
X20259Y43245D01*
X20330Y43510D01*
X20446Y43759D01*
X20604Y43983D01*
X20798Y44177D01*
X21023Y44335D01*
X21271Y44451D01*
X21536Y44522D01*
X21810Y44546D01*
X22595D01*
X22681Y44536D01*
X22763Y44509D01*
X22836Y44463D01*
X22898Y44403D01*
X22946Y44331D01*
X22976Y44251D01*
X23052Y44042D01*
X23165Y43851D01*
X23312Y43684D01*
X23488Y43548D01*
X23686Y43448D01*
X23899Y43386D01*
X24120Y43365D01*
X24341Y43386D01*
X24554Y43448D01*
X24752Y43548D01*
X24928Y43684D01*
X25075Y43851D01*
X25188Y44042D01*
X25264Y44251D01*
X25294Y44331D01*
X25342Y44403D01*
X25404Y44463D01*
X25477Y44509D01*
X25559Y44536D01*
X25645Y44546D01*
X49910D01*
X50184Y44522D01*
X50449Y44451D01*
X50698Y44335D01*
X50923Y44177D01*
X51117Y43983D01*
X51274Y43759D01*
X51390Y43510D01*
X51461Y43245D01*
X51485Y42971D01*
Y32371D02*
Y42971D01*
Y32371D02*
X51509Y32097D01*
X51580Y31832D01*
X51696Y31583D01*
X51854Y31358D01*
X52048Y31164D01*
X52273Y31007D01*
X52521Y30891D01*
X52786Y30820D01*
X53060Y30796D01*
X56160D01*
X56434Y30772D01*
X56699Y30701D01*
X56948Y30585D01*
X57173Y30427D01*
X57367Y30233D01*
X57524Y30008D01*
X57640Y29760D01*
X57711Y29495D01*
X57735Y29221D01*
D61*
X24180Y34490D02*
D03*
Y31636D02*
D03*
D62*
X47573Y39324D02*
D03*
Y39127D02*
D03*
Y38931D02*
D03*
Y38734D02*
D03*
Y38537D02*
D03*
Y38340D02*
D03*
Y38143D02*
D03*
Y37946D02*
D03*
Y37750D02*
D03*
Y37553D02*
D03*
Y37356D02*
D03*
Y37159D02*
D03*
Y36962D02*
D03*
Y36765D02*
D03*
Y36568D02*
D03*
Y36372D02*
D03*
Y36175D02*
D03*
Y35978D02*
D03*
Y35781D02*
D03*
Y35584D02*
D03*
Y35387D02*
D03*
Y35190D02*
D03*
Y34994D02*
D03*
Y34797D02*
D03*
Y34600D02*
D03*
Y34403D02*
D03*
Y34206D02*
D03*
Y34009D02*
D03*
Y33813D02*
D03*
Y33616D02*
D03*
X49738Y39324D02*
D03*
Y39127D02*
D03*
Y38931D02*
D03*
Y38734D02*
D03*
Y38537D02*
D03*
Y38340D02*
D03*
Y38143D02*
D03*
Y37946D02*
D03*
Y37750D02*
D03*
Y37553D02*
D03*
Y37356D02*
D03*
Y37159D02*
D03*
Y36962D02*
D03*
Y36765D02*
D03*
Y36568D02*
D03*
Y36372D02*
D03*
Y36175D02*
D03*
Y35978D02*
D03*
Y35781D02*
D03*
Y35584D02*
D03*
Y35387D02*
D03*
Y35190D02*
D03*
Y34994D02*
D03*
Y34797D02*
D03*
Y34600D02*
D03*
Y34403D02*
D03*
Y34206D02*
D03*
Y34009D02*
D03*
Y33813D02*
D03*
D63*
Y33616D02*
D03*
D64*
X29483Y41675D02*
D03*
X30483D02*
D03*
X31483D02*
D03*
X29483Y31557D02*
D03*
X30483D02*
D03*
X31483D02*
D03*
D65*
X32019Y27870D02*
D03*
X31350D02*
D03*
X25770Y40850D02*
D03*
X25101D02*
D03*
X56030Y18260D02*
D03*
X55361D02*
D03*
X32020Y29620D02*
D03*
X31351D02*
D03*
D66*
X54100Y10710D02*
D03*
X53155Y19135D02*
D03*
X49503Y19730D02*
D03*
X47486Y19726D02*
D03*
X44887D02*
D03*
X45557D02*
D03*
X46511D02*
D03*
X48503Y19730D02*
D03*
X50503D02*
D03*
X51423Y19726D02*
D03*
X52417D02*
D03*
X43411Y19234D02*
D03*
X43352Y10710D02*
D03*
D67*
X44376Y19726D02*
D03*
X43903D02*
D03*
D68*
X41865Y17935D02*
D03*
Y17265D02*
D03*
X40075Y17935D02*
D03*
Y17265D02*
D03*
X38305Y17935D02*
D03*
Y17265D02*
D03*
X52840Y24370D02*
D03*
Y25039D02*
D03*
X51010D02*
D03*
Y24370D02*
D03*
X52840Y26075D02*
D03*
Y26745D02*
D03*
X51010Y26075D02*
D03*
Y26745D02*
D03*
D69*
X33026Y24769D02*
D03*
X30172D02*
D03*
D70*
X52761Y28433D02*
D03*
Y27882D02*
D03*
X50931Y28433D02*
D03*
Y27882D02*
D03*
D71*
X35970Y28410D02*
D03*
X35163Y28012D02*
D03*
Y28808D02*
D03*
X37140Y17560D02*
D03*
X36333Y17162D02*
D03*
Y17958D02*
D03*
X42640Y19510D02*
D03*
X41833Y19112D02*
D03*
Y19908D02*
D03*
D72*
X54910Y14906D02*
D03*
Y17150D02*
D03*
X56367Y14906D02*
D03*
Y17150D02*
D03*
D73*
X36085Y18710D02*
D03*
X36695D02*
D03*
X23880Y40830D02*
D03*
X23270D02*
D03*
X36105Y25080D02*
D03*
X36715D02*
D03*
D74*
X55493Y19990D02*
D03*
X55927D02*
D03*
X55493Y20900D02*
D03*
X55927D02*
D03*
X55493Y19100D02*
D03*
X55927D02*
D03*
D75*
X38336Y23852D02*
D03*
Y23537D02*
D03*
Y23222D02*
D03*
Y22907D02*
D03*
Y22593D02*
D03*
Y22278D02*
D03*
Y21963D02*
D03*
Y21648D02*
D03*
X41564D02*
D03*
Y21963D02*
D03*
Y22278D02*
D03*
Y22593D02*
D03*
Y22907D02*
D03*
Y23222D02*
D03*
Y23537D02*
D03*
Y23852D02*
D03*
D76*
X38848Y21136D02*
D03*
X39163D02*
D03*
X39478D02*
D03*
X39793D02*
D03*
X40107D02*
D03*
X40422D02*
D03*
X40737D02*
D03*
X41052D02*
D03*
Y24364D02*
D03*
X40737D02*
D03*
X40422D02*
D03*
X40107D02*
D03*
X39793D02*
D03*
X39478D02*
D03*
X39163D02*
D03*
X38848D02*
D03*
D77*
X21440Y34682D02*
D03*
Y32950D02*
D03*
D78*
X36950Y27480D02*
D03*
X37501D02*
D03*
D79*
X27789Y30066D02*
D03*
Y29160D02*
D03*
Y28254D02*
D03*
D80*
X30151Y29160D02*
D03*
D81*
X49790Y26580D02*
D03*
X49534D02*
D03*
X49278D02*
D03*
X49022D02*
D03*
X48766D02*
D03*
X48510D02*
D03*
X48255D02*
D03*
X47999D02*
D03*
X47743D02*
D03*
X47487D02*
D03*
X47231D02*
D03*
X46975D02*
D03*
X46719D02*
D03*
X46463D02*
D03*
X49790Y23903D02*
D03*
X49534D02*
D03*
X49278D02*
D03*
X49022D02*
D03*
X48766D02*
D03*
X48510D02*
D03*
X48255D02*
D03*
X47999D02*
D03*
X47743D02*
D03*
X47487D02*
D03*
X47231D02*
D03*
X46975D02*
D03*
X46719D02*
D03*
X46463D02*
D03*
D82*
X54030Y22520D02*
D03*
Y21910D02*
D03*
D83*
X36330Y19709D02*
D03*
X36380Y24209D02*
D03*
D84*
X34806Y26834D02*
D03*
Y26460D02*
D03*
Y26086D02*
D03*
X35594D02*
D03*
Y26834D02*
D03*
X38846Y28204D02*
D03*
Y27830D02*
D03*
Y27456D02*
D03*
X39634D02*
D03*
Y28204D02*
D03*
D85*
X28792Y26364D02*
D03*
Y25616D02*
D03*
X27828D02*
D03*
Y25990D02*
D03*
Y26364D02*
D03*
D86*
X23480Y16110D02*
D03*
X23550Y25940D02*
D03*
D87*
X37317Y43104D02*
D03*
X45585D02*
D03*
X37317Y29836D02*
D03*
X45585D02*
D03*
D88*
X32310Y39730D02*
D03*
D89*
X27586Y33844D02*
D03*
D90*
X21060Y37970D02*
D03*
X22005Y38757D02*
D03*
X24170D02*
D03*
X21454Y36277D02*
D03*
X24958D02*
D03*
Y39742D02*
D03*
D91*
X44198Y18623D02*
D03*
D92*
X52466D02*
D03*
D93*
X45080Y28004D02*
D03*
Y27020D02*
D03*
X44096Y28004D02*
D03*
Y27020D02*
D03*
X43112Y28004D02*
D03*
D94*
Y27020D02*
D03*
D95*
X37340Y11960D02*
D03*
D96*
X38340D02*
D03*
X39340D02*
D03*
X40340D02*
D03*
X41340D02*
D03*
X37340Y15960D02*
D03*
X38340D02*
D03*
X39340D02*
D03*
X40340D02*
D03*
X41340D02*
D03*
D97*
X56900Y26570D02*
D03*
Y23696D02*
D03*
D98*
X55384Y25448D02*
D03*
X54912Y25133D02*
D03*
X55384Y24818D02*
D03*
X54912Y25763D02*
D03*
Y24503D02*
D03*
D99*
X36380Y22920D02*
D03*
Y20999D02*
D03*
D100*
X21810Y42971D02*
D03*
Y11121D02*
D03*
X56160D02*
D03*
Y29221D02*
D03*
D101*
X47431Y22840D02*
D03*
X36950Y27860D02*
D03*
X52240Y21490D02*
D03*
X28500Y30970D02*
D03*
X38130Y28204D02*
D03*
X39110Y37661D02*
D03*
X41830Y27960D02*
D03*
X48880Y19350D02*
D03*
X37325Y26834D02*
D03*
X42760Y24200D02*
D03*
X37910Y19090D02*
D03*
X43420Y26240D02*
D03*
X43810Y24229D02*
D03*
X51423Y19250D02*
D03*
X31483Y33630D02*
D03*
X50240D02*
D03*
X30483Y32920D02*
D03*
X48360D02*
D03*
X29980Y31560D02*
D03*
X48650D02*
D03*
X40520Y18560D02*
D03*
X41400Y17940D02*
D03*
X38520Y20360D02*
D03*
X46463Y22050D02*
D03*
X52950Y25650D02*
D03*
X51230Y27380D02*
D03*
X27550Y27880D02*
D03*
X41030Y23750D02*
D03*
X50330Y36910D02*
D03*
X40422Y25080D02*
D03*
X42410Y21730D02*
D03*
X55144Y19100D02*
D03*
X33150Y29420D02*
D03*
X28190Y29610D02*
D03*
X28790Y30440D02*
D03*
X31010Y33270D02*
D03*
X44873D02*
D03*
X28210Y27610D02*
D03*
X32440Y28380D02*
D03*
X50240Y28740D02*
D03*
X51600Y21530D02*
D03*
X49240Y37661D02*
D03*
X24180Y33140D02*
D03*
X42240Y19112D02*
D03*
X47487Y25360D02*
D03*
X40130Y21890D02*
D03*
X41030Y21680D02*
D03*
X41390Y26570D02*
D03*
X53340Y16132D02*
D03*
X39060Y23490D02*
D03*
X41110Y25230D02*
D03*
X34010Y26834D02*
D03*
X52430Y27490D02*
D03*
X36940Y14010D02*
D03*
X46940Y23170D02*
D03*
X34790Y29130D02*
D03*
X40420Y23100D02*
D03*
X49680Y24920D02*
D03*
X43260Y23560D02*
D03*
X52370Y26080D02*
D03*
X38850Y23890D02*
D03*
X25270Y20050D02*
D03*
X35960Y24580D02*
D03*
X40110Y23810D02*
D03*
X50000Y25610D02*
D03*
X49790Y27270D02*
D03*
X30172Y27030D02*
D03*
X21000Y31000D02*
D03*
X50250Y37460D02*
D03*
X53510Y29020D02*
D03*
X37910Y21120D02*
D03*
X37690Y22300D02*
D03*
X39460Y18730D02*
D03*
X25020Y38160D02*
D03*
X25840Y39720D02*
D03*
X26910Y40360D02*
D03*
X54300Y25133D02*
D03*
X49140Y27300D02*
D03*
X47700Y27150D02*
D03*
X48230Y27450D02*
D03*
X48600Y27370D02*
D03*
X48950Y35870D02*
D03*
X31483D02*
D03*
M02*
