%FSLAX24Y24*%
%MOIN*%
G70*
G01*
G75*
G04 Layer_Physical_Order=1*
G04 Layer_Color=255*
%ADD10R,0.0551X0.1673*%
%ADD11O,0.0551X0.0098*%
%ADD12R,0.0551X0.0098*%
G04:AMPARAMS|DCode=13|XSize=66.9mil|YSize=51.2mil|CornerRadius=12.8mil|HoleSize=0mil|Usage=FLASHONLY|Rotation=90.000|XOffset=0mil|YOffset=0mil|HoleType=Round|Shape=RoundedRectangle|*
%AMROUNDEDRECTD13*
21,1,0.0669,0.0256,0,0,90.0*
21,1,0.0413,0.0512,0,0,90.0*
1,1,0.0256,0.0128,0.0207*
1,1,0.0256,0.0128,-0.0207*
1,1,0.0256,-0.0128,-0.0207*
1,1,0.0256,-0.0128,0.0207*
%
%ADD13ROUNDEDRECTD13*%
%ADD14R,0.0394X0.0492*%
%ADD15R,0.0394X0.0591*%
%ADD16R,0.0276X0.0591*%
%ADD17R,0.0492X0.0394*%
%ADD18R,0.1181X0.3937*%
%ADD19R,0.0335X0.0315*%
%ADD20R,0.0374X0.0236*%
G04:AMPARAMS|DCode=21|XSize=90.6mil|YSize=43.3mil|CornerRadius=10.8mil|HoleSize=0mil|Usage=FLASHONLY|Rotation=270.000|XOffset=0mil|YOffset=0mil|HoleType=Round|Shape=RoundedRectangle|*
%AMROUNDEDRECTD21*
21,1,0.0906,0.0217,0,0,270.0*
21,1,0.0689,0.0433,0,0,270.0*
1,1,0.0217,-0.0108,-0.0344*
1,1,0.0217,-0.0108,0.0344*
1,1,0.0217,0.0108,0.0344*
1,1,0.0217,0.0108,-0.0344*
%
%ADD21ROUNDEDRECTD21*%
%ADD22R,0.0413X0.0551*%
%ADD23R,0.0276X0.0197*%
%ADD24O,0.0512X0.0217*%
%ADD25O,0.0217X0.0512*%
%ADD26R,0.0433X0.0866*%
%ADD27R,0.0315X0.0335*%
%ADD28R,0.0787X0.0354*%
%ADD29R,0.0787X0.1299*%
%ADD30O,0.0177X0.0709*%
%ADD31R,0.0551X0.0413*%
G04:AMPARAMS|DCode=32|XSize=60mil|YSize=20mil|CornerRadius=5mil|HoleSize=0mil|Usage=FLASHONLY|Rotation=270.000|XOffset=0mil|YOffset=0mil|HoleType=Round|Shape=RoundedRectangle|*
%AMROUNDEDRECTD32*
21,1,0.0600,0.0100,0,0,270.0*
21,1,0.0500,0.0200,0,0,270.0*
1,1,0.0100,-0.0050,-0.0250*
1,1,0.0100,-0.0050,0.0250*
1,1,0.0100,0.0050,0.0250*
1,1,0.0100,0.0050,-0.0250*
%
%ADD32ROUNDEDRECTD32*%
%ADD33R,0.0433X0.0217*%
%ADD34R,0.0295X0.0217*%
%ADD35C,0.0140*%
%ADD36C,0.0200*%
%ADD37C,0.0100*%
%ADD38C,0.0250*%
G04:AMPARAMS|DCode=39|XSize=600mil|YSize=600mil|CornerRadius=300mil|HoleSize=0mil|Usage=FLASHONLY|Rotation=0.000|XOffset=0mil|YOffset=0mil|HoleType=Round|Shape=RoundedRectangle|*
%AMROUNDEDRECTD39*
21,1,0.6000,0.0000,0,0,0.0*
21,1,0.0000,0.6000,0,0,0.0*
1,1,0.6000,0.0000,0.0000*
1,1,0.6000,0.0000,0.0000*
1,1,0.6000,0.0000,0.0000*
1,1,0.6000,0.0000,0.0000*
%
%ADD39ROUNDEDRECTD39*%
%ADD40C,0.1969*%
%ADD41C,0.1100*%
%ADD42C,0.1000*%
%ADD43C,0.0950*%
%ADD44C,0.0600*%
%ADD45C,0.0800*%
%ADD46C,0.0591*%
%ADD47R,0.0591X0.0591*%
%ADD48R,0.0472X0.0984*%
%ADD49O,0.0472X0.0984*%
G04:AMPARAMS|DCode=50|XSize=106.3mil|YSize=106.3mil|CornerRadius=53.2mil|HoleSize=0mil|Usage=FLASHONLY|Rotation=180.000|XOffset=0mil|YOffset=0mil|HoleType=Round|Shape=RoundedRectangle|*
%AMROUNDEDRECTD50*
21,1,0.1063,0.0000,0,0,180.0*
21,1,0.0000,0.1063,0,0,180.0*
1,1,0.1063,0.0000,0.0000*
1,1,0.1063,0.0000,0.0000*
1,1,0.1063,0.0000,0.0000*
1,1,0.1063,0.0000,0.0000*
%
%ADD50ROUNDEDRECTD50*%
G04:AMPARAMS|DCode=51|XSize=43.3mil|YSize=43.3mil|CornerRadius=21.7mil|HoleSize=0mil|Usage=FLASHONLY|Rotation=180.000|XOffset=0mil|YOffset=0mil|HoleType=Round|Shape=RoundedRectangle|*
%AMROUNDEDRECTD51*
21,1,0.0433,0.0000,0,0,180.0*
21,1,0.0000,0.0433,0,0,180.0*
1,1,0.0433,0.0000,0.0000*
1,1,0.0433,0.0000,0.0000*
1,1,0.0433,0.0000,0.0000*
1,1,0.0433,0.0000,0.0000*
%
%ADD51ROUNDEDRECTD51*%
%ADD52C,0.0500*%
%ADD53C,0.2400*%
%ADD54C,0.0300*%
D10*
X24180Y34490D02*
D03*
Y31636D02*
D03*
D11*
X47573Y39324D02*
D03*
Y39127D02*
D03*
Y38931D02*
D03*
Y38734D02*
D03*
Y38537D02*
D03*
Y38340D02*
D03*
Y38143D02*
D03*
Y37946D02*
D03*
Y37750D02*
D03*
Y37553D02*
D03*
Y37356D02*
D03*
Y37159D02*
D03*
Y36962D02*
D03*
Y36765D02*
D03*
Y36568D02*
D03*
Y36372D02*
D03*
Y36175D02*
D03*
Y35978D02*
D03*
Y35781D02*
D03*
Y35584D02*
D03*
Y35387D02*
D03*
Y35190D02*
D03*
Y34994D02*
D03*
Y34797D02*
D03*
Y34600D02*
D03*
Y34403D02*
D03*
Y34206D02*
D03*
Y34009D02*
D03*
Y33813D02*
D03*
Y33616D02*
D03*
X49738Y39324D02*
D03*
Y39127D02*
D03*
Y38931D02*
D03*
Y38734D02*
D03*
Y38537D02*
D03*
Y38340D02*
D03*
Y38143D02*
D03*
Y37946D02*
D03*
Y37750D02*
D03*
Y37553D02*
D03*
Y37356D02*
D03*
Y37159D02*
D03*
Y36962D02*
D03*
Y36765D02*
D03*
Y36568D02*
D03*
Y36372D02*
D03*
Y36175D02*
D03*
Y35978D02*
D03*
Y35781D02*
D03*
Y35584D02*
D03*
Y35387D02*
D03*
Y35190D02*
D03*
Y34994D02*
D03*
Y34797D02*
D03*
Y34600D02*
D03*
Y34403D02*
D03*
Y34206D02*
D03*
Y34009D02*
D03*
Y33813D02*
D03*
D12*
Y33616D02*
D03*
D13*
X29483Y41675D02*
D03*
X30483D02*
D03*
X31483D02*
D03*
X29483Y31557D02*
D03*
X30483D02*
D03*
X31483D02*
D03*
D14*
X32019Y27870D02*
D03*
X31350D02*
D03*
X25770Y40850D02*
D03*
X25101D02*
D03*
X56030Y18260D02*
D03*
X55361D02*
D03*
X32020Y29620D02*
D03*
X31351D02*
D03*
D15*
X54100Y10710D02*
D03*
X53155Y19135D02*
D03*
X49503Y19730D02*
D03*
X47486Y19726D02*
D03*
X44887D02*
D03*
X45557D02*
D03*
X46511D02*
D03*
X48503Y19730D02*
D03*
X50503D02*
D03*
X51423Y19726D02*
D03*
X52417D02*
D03*
X43411Y19234D02*
D03*
X43352Y10710D02*
D03*
D16*
X44376Y19726D02*
D03*
X43903D02*
D03*
D17*
X41865Y17935D02*
D03*
Y17265D02*
D03*
X40075Y17935D02*
D03*
Y17265D02*
D03*
X38305Y17935D02*
D03*
Y17265D02*
D03*
X52840Y24370D02*
D03*
Y25039D02*
D03*
X51010D02*
D03*
Y24370D02*
D03*
X52840Y26075D02*
D03*
Y26745D02*
D03*
X51010Y26075D02*
D03*
Y26745D02*
D03*
D18*
X33026Y24769D02*
D03*
X30172D02*
D03*
D19*
X52761Y28433D02*
D03*
Y27882D02*
D03*
X50931Y28433D02*
D03*
Y27882D02*
D03*
D20*
X35970Y28410D02*
D03*
X35163Y28012D02*
D03*
Y28808D02*
D03*
X37140Y17560D02*
D03*
X36333Y17162D02*
D03*
Y17958D02*
D03*
X42640Y19510D02*
D03*
X41833Y19112D02*
D03*
Y19908D02*
D03*
D21*
X54910Y14906D02*
D03*
Y17150D02*
D03*
X56367Y14906D02*
D03*
Y17150D02*
D03*
D22*
X36085Y18710D02*
D03*
X36695D02*
D03*
X23880Y40830D02*
D03*
X23270D02*
D03*
X36105Y25080D02*
D03*
X36715D02*
D03*
D23*
X55493Y19990D02*
D03*
X55927D02*
D03*
X55493Y20900D02*
D03*
X55927D02*
D03*
X55493Y19100D02*
D03*
X55927D02*
D03*
D24*
X38336Y23852D02*
D03*
Y23537D02*
D03*
Y23222D02*
D03*
Y22907D02*
D03*
Y22593D02*
D03*
Y22278D02*
D03*
Y21963D02*
D03*
Y21648D02*
D03*
X41564D02*
D03*
Y21963D02*
D03*
Y22278D02*
D03*
Y22593D02*
D03*
Y22907D02*
D03*
Y23222D02*
D03*
Y23537D02*
D03*
Y23852D02*
D03*
D25*
X38848Y21136D02*
D03*
X39163D02*
D03*
X39478D02*
D03*
X39793D02*
D03*
X40107D02*
D03*
X40422D02*
D03*
X40737D02*
D03*
X41052D02*
D03*
Y24364D02*
D03*
X40737D02*
D03*
X40422D02*
D03*
X40107D02*
D03*
X39793D02*
D03*
X39478D02*
D03*
X39163D02*
D03*
X38848D02*
D03*
D26*
X21440Y34682D02*
D03*
Y32950D02*
D03*
D27*
X36950Y27480D02*
D03*
X37501D02*
D03*
D28*
X27789Y30066D02*
D03*
Y29160D02*
D03*
Y28254D02*
D03*
D29*
X30151Y29160D02*
D03*
D30*
X49790Y26580D02*
D03*
X49534D02*
D03*
X49278D02*
D03*
X49022D02*
D03*
X48766D02*
D03*
X48510D02*
D03*
X48255D02*
D03*
X47999D02*
D03*
X47743D02*
D03*
X47487D02*
D03*
X47231D02*
D03*
X46975D02*
D03*
X46719D02*
D03*
X46463D02*
D03*
X49790Y23903D02*
D03*
X49534D02*
D03*
X49278D02*
D03*
X49022D02*
D03*
X48766D02*
D03*
X48510D02*
D03*
X48255D02*
D03*
X47999D02*
D03*
X47743D02*
D03*
X47487D02*
D03*
X47231D02*
D03*
X46975D02*
D03*
X46719D02*
D03*
X46463D02*
D03*
D31*
X54030Y22520D02*
D03*
Y21910D02*
D03*
D32*
X36330Y19709D02*
D03*
X36380Y24209D02*
D03*
D33*
X34806Y26834D02*
D03*
Y26460D02*
D03*
Y26086D02*
D03*
X35594D02*
D03*
Y26834D02*
D03*
X38846Y28204D02*
D03*
Y27830D02*
D03*
Y27456D02*
D03*
X39634D02*
D03*
Y28204D02*
D03*
D34*
X28792Y26364D02*
D03*
Y25616D02*
D03*
X27828D02*
D03*
Y25990D02*
D03*
Y26364D02*
D03*
D35*
X43290Y18370D02*
X44160Y19240D01*
X45800D01*
X43290Y11600D02*
Y18370D01*
X27540Y27850D02*
Y28254D01*
Y27850D02*
X27550D01*
X35990Y19060D02*
Y24580D01*
X47088Y18623D02*
X52466D01*
X49503Y19730D02*
Y20047D01*
X50300Y19730D02*
X50503D01*
X45557Y19726D02*
Y20200D01*
X47486Y19726D02*
Y20414D01*
X36435Y17162D02*
Y17172D01*
X39487Y27994D02*
Y28204D01*
X48503Y19290D02*
X50800D01*
X47231Y23040D02*
Y23903D01*
Y23040D02*
X47431Y22840D01*
X47231Y23903D02*
Y24280D01*
X47190D02*
Y25580D01*
X47400Y25790D01*
X49068D01*
X49278Y26000D01*
Y26580D01*
X37501Y27480D02*
X38160D01*
X38184Y27456D01*
X38846D01*
X36950Y27480D02*
Y27860D01*
X40340Y11320D02*
Y11960D01*
Y11320D02*
X42000D01*
X42640Y11960D01*
Y19510D01*
X52240Y21490D02*
X52660Y21910D01*
X54030D01*
X54800D01*
X55210Y21500D01*
Y20100D02*
Y21500D01*
Y20100D02*
X55320Y19990D01*
X55493D01*
X48510Y26200D02*
Y26580D01*
Y26200D02*
X48665Y26046D01*
X48766D01*
Y26580D01*
X28234Y30066D02*
X28500Y29800D01*
X27789Y30066D02*
X28234D01*
X28500Y25716D02*
X28600Y25616D01*
X27194D02*
X27828D01*
X32019Y27870D02*
Y28012D01*
Y27579D02*
Y27870D01*
X31800Y27360D02*
X32019Y27579D01*
X29600Y27360D02*
X31800D01*
X27870Y25460D02*
X28000Y25330D01*
X27828Y25616D02*
X27870D01*
X34806Y26086D02*
X35594D01*
X49738Y38931D02*
Y39127D01*
X35970Y28410D02*
X37506D01*
X37712Y28204D01*
X38846D02*
X39110D01*
X42664Y28004D02*
X43112D01*
X42460Y27800D02*
X42664Y28004D01*
X41300Y22593D02*
X41564D01*
X41160Y22453D02*
X41300Y22593D01*
X41160Y22100D02*
Y22453D01*
Y22100D02*
X41297Y21963D01*
X41564D01*
X41586Y28204D02*
X41830Y27960D01*
X39634Y28204D02*
X41586D01*
X48503Y19350D02*
X48880D01*
X38336Y22278D02*
X38618D01*
X38740Y22400D01*
Y22800D01*
X38633Y22907D02*
X38740Y22800D01*
X38336Y22907D02*
X38633D01*
X39487Y28204D02*
X39634D01*
X39210Y27717D02*
X39487Y27994D01*
X39210Y27244D02*
Y27717D01*
X38800Y26834D02*
X39210Y27244D01*
X35594Y26834D02*
X37325D01*
X42660Y24200D02*
X42760D01*
X42460Y24000D02*
X42660Y24200D01*
X42460Y23053D02*
Y24000D01*
X42000Y22593D02*
X42460Y23053D01*
X41564Y22593D02*
X42000D01*
X36333Y17162D02*
X36435D01*
Y17172D02*
X37270D01*
X37363Y17265D01*
X37910Y17400D02*
X38045Y17265D01*
X37910Y17400D02*
Y19090D01*
X43420Y26240D02*
X43810Y25850D01*
Y24229D02*
Y25850D01*
X51423Y19250D02*
Y19726D01*
X31483Y31557D02*
Y33630D01*
X50240D02*
Y34200D01*
X50037Y34403D02*
X50240Y34200D01*
X49738Y34403D02*
X50037D01*
X30483Y31557D02*
Y32920D01*
X48360D02*
Y36916D01*
X48800Y37356D01*
X49738D01*
X29483Y31557D02*
Y31560D01*
X40107Y18973D02*
X40520Y18560D01*
X40107Y18973D02*
Y21136D01*
X41400Y17940D02*
X41405Y17935D01*
X41865D01*
X39478Y18758D02*
Y21136D01*
X39460Y18740D02*
X39478Y18758D01*
X39163Y18372D02*
Y21136D01*
Y18372D02*
X39600Y17935D01*
X40075D01*
X38520Y20360D02*
X38848Y20688D01*
Y21136D01*
X46463Y22050D02*
Y23903D01*
X44096Y28004D02*
X45080Y27020D01*
X44096Y28004D02*
Y28004D01*
Y35600D01*
X44670Y36175D01*
X47573D01*
X52840Y25039D02*
X52950D01*
X50931Y27679D02*
X51230Y27380D01*
X50931Y27679D02*
Y27882D01*
X39340Y15960D02*
Y16800D01*
X39805Y17265D01*
X40075D01*
X36380Y20999D02*
Y21428D01*
X36600Y21648D01*
X38336D01*
X36380Y22920D02*
X36715D01*
X37153Y21963D02*
X38336D01*
X36715Y22400D02*
X37153Y21963D01*
X54333Y24503D02*
X54672D01*
X54030Y24200D02*
X54333Y24503D01*
X54030Y22520D02*
Y24200D01*
X34440Y25600D02*
Y26460D01*
Y25600D02*
X34960Y25080D01*
X36105D01*
X33026Y24769D02*
Y26460D01*
X26770Y28280D02*
X27200Y27850D01*
X27650Y25990D02*
X27828D01*
X27540Y26100D02*
X27650Y25990D01*
X26770Y28280D02*
Y35200D01*
X37470Y23752D02*
X38000Y23222D01*
X37470Y23752D02*
Y25200D01*
X37030Y25640D02*
X37470Y25200D01*
X36345Y25640D02*
X37030D01*
X36105Y25400D02*
X36345Y25640D01*
X36105Y25080D02*
Y25400D01*
X41200Y22907D02*
X41564D01*
X41030Y23077D02*
X41200Y22907D01*
X41030Y23077D02*
Y23750D01*
X38037Y22593D02*
X38336D01*
X37930Y22700D02*
X38037Y22593D01*
X37930Y22700D02*
Y23100D01*
X38052Y23222D01*
X48255Y26200D02*
Y26580D01*
X48135Y26080D02*
X48255Y26200D01*
X47351Y26080D02*
X48135D01*
X47231Y26200D02*
X47351Y26080D01*
X47231Y26200D02*
Y26580D01*
X46975D02*
X47231D01*
X45080Y28004D02*
X46827D01*
X49200Y20350D02*
X49503Y20047D01*
X48400Y20350D02*
X49200D01*
X48050Y20000D02*
X48400Y20350D01*
X48050Y19360D02*
Y20000D01*
X47600Y18910D02*
X48050Y19360D01*
X46511Y19199D02*
X46800Y18910D01*
X46511Y19200D02*
Y19726D01*
X44198Y18623D02*
X46000D01*
X46511Y19135D01*
X55927Y19100D02*
Y19990D01*
Y19100D02*
X56070D01*
X56370Y18800D01*
X55927Y19990D02*
Y20900D01*
X49738Y37946D02*
Y38143D01*
Y37750D02*
Y37946D01*
X40422Y24364D02*
Y25080D01*
X42410Y21490D02*
Y21730D01*
X41830Y20910D02*
X42410Y21490D01*
X41830Y19908D02*
X41833D01*
X36333Y17958D02*
X36808D01*
X37250Y18400D01*
X55144Y19100D02*
X55493D01*
X54310Y26000D02*
X54510Y26200D01*
X54310Y25133D02*
X54672D01*
X33150Y29420D02*
X34960D01*
X35080Y29300D01*
Y28808D02*
X35163D01*
X27999Y29610D02*
X28190D01*
X27789Y29400D02*
X27999Y29610D01*
X27789Y29160D02*
Y29400D01*
X28790Y26364D02*
X28792D01*
X31350Y27870D02*
Y28160D01*
X31010Y28400D02*
X31250Y28160D01*
X31010Y28400D02*
Y33270D01*
X44873D02*
X46400Y34797D01*
X47573D01*
X27828Y26364D02*
X28000D01*
X28210Y26574D01*
Y27610D01*
X32020Y28800D02*
Y29620D01*
Y28800D02*
X32440Y28380D01*
X36000Y16990D02*
X36200Y16790D01*
X36000Y16990D02*
Y17360D01*
X36200Y17560D01*
X37140D01*
X50240Y25980D02*
Y28740D01*
Y25980D02*
X50410Y25810D01*
Y22000D02*
Y25810D01*
Y22000D02*
X50880Y21530D01*
X51600D01*
X28600Y25616D02*
X28792D01*
X31351Y29079D02*
X32019Y28410D01*
X31351Y29079D02*
Y29620D01*
X35594Y26086D02*
X40386D01*
X41160Y26860D01*
X41520D01*
X41680Y26700D01*
Y24306D02*
Y26700D01*
X41564Y24190D02*
X41680Y24306D01*
X41564Y23852D02*
Y24190D01*
X49240Y37661D02*
Y38574D01*
X49400Y38734D01*
X49738D01*
Y38931D01*
X51010Y26745D02*
X51475D01*
X51730Y27000D01*
Y30090D01*
X49738Y38734D02*
X50400D01*
X49738Y39127D02*
Y39324D01*
X51950Y23920D02*
X52400Y24370D01*
X51950Y21160D02*
Y23920D01*
X54350Y18760D02*
X55800D01*
X56030Y18260D02*
Y18530D01*
X41833Y19112D02*
X42240D01*
X50800Y19290D02*
X51020Y19510D01*
Y20170D01*
X52940D01*
X54350Y18760D01*
X55800D02*
X56030Y18530D01*
X51501Y25039D02*
X52170Y24370D01*
X51010Y25039D02*
X51501D01*
X47487Y23903D02*
Y25360D01*
X40422Y21136D02*
Y21508D01*
X40130Y21800D02*
X40422Y21508D01*
X40130Y21800D02*
Y21890D01*
X40950Y21760D02*
X41030Y21680D01*
X40950Y21760D02*
Y22187D01*
X40737Y22400D02*
X40950Y22187D01*
X40737Y22400D02*
Y24364D01*
X40740Y17940D02*
X41400D01*
X40390Y18290D02*
X40740Y17940D01*
X40303Y18290D02*
X40390D01*
X39793Y18800D02*
X40303Y18290D01*
X39793Y18800D02*
Y21136D01*
X38305Y17935D02*
X38600D01*
X38920Y17615D01*
Y11200D02*
Y17615D01*
Y11200D02*
X39150Y10970D01*
X42660D01*
X43290Y11600D01*
X45800Y19240D02*
X46030Y19470D01*
Y20000D01*
X46730Y20700D01*
X47200D01*
X47486Y20414D01*
X42670Y24771D02*
X43050Y24391D01*
Y23910D02*
Y24391D01*
X42670Y23530D02*
X43050Y23910D01*
X42670Y22418D02*
Y23530D01*
X41900Y21648D02*
X42670Y22418D01*
X41564Y21648D02*
X41900D01*
X44096Y27020D02*
X44100Y24690D01*
Y22000D02*
Y24690D01*
Y22000D02*
X44632Y21468D01*
X46818D01*
X47486Y20800D01*
X39793Y24364D02*
Y25253D01*
X40000Y25460D01*
X40460D01*
X40980Y24940D01*
X41300D01*
X41400Y25040D01*
Y26560D01*
X41390Y26570D02*
X41400Y26560D01*
X49320Y36175D02*
X49738D01*
X49320Y31000D02*
X51520Y28800D01*
Y27200D02*
Y28800D01*
X51410Y27090D02*
X51520Y27200D01*
X50620Y27090D02*
X51410D01*
X50620Y26200D02*
Y27090D01*
Y26200D02*
X50745Y26075D01*
X51010D01*
X39060Y23490D02*
X39478Y23908D01*
Y24364D01*
X41110Y25230D02*
Y25438D01*
X40800Y25748D02*
X41110Y25438D01*
X39600Y25748D02*
X40800D01*
X39163Y25311D02*
X39600Y25748D01*
X39163Y24364D02*
Y25311D01*
X34010Y26834D02*
X34806D01*
X50697Y28433D02*
X50931D01*
X50400Y29030D02*
X50697Y28733D01*
X48400Y29030D02*
X50400D01*
X50750Y24370D02*
X51010D01*
X50620Y24500D02*
X50750Y24370D01*
X50620Y24500D02*
Y25400D01*
X51340D01*
X51940Y26000D01*
Y28720D01*
X52400Y29180D01*
X52800D01*
X53070Y28910D01*
Y28000D02*
Y28910D01*
X52952Y27882D02*
X53070Y28000D01*
X52761Y27882D02*
X52952D01*
X52430Y28433D02*
X52761D01*
X52430Y27490D02*
Y28433D01*
X36940Y14010D02*
X37340Y13610D01*
Y11960D02*
Y13610D01*
X36695Y18710D02*
Y20145D01*
X36380Y20460D02*
X36695Y20145D01*
X36380Y20460D02*
Y20999D01*
X46719Y23421D02*
Y23903D01*
Y23421D02*
X46940Y23200D01*
Y23170D02*
Y23200D01*
X33000Y29130D02*
X34790D01*
X32860Y29270D02*
X33000Y29130D01*
X32860Y29270D02*
Y33840D01*
X32400Y34300D02*
X32860Y33840D01*
X30080Y34300D02*
X32400D01*
X26790Y37590D02*
X30080Y34300D01*
X40737Y21136D02*
Y21883D01*
X40420Y22200D02*
X40737Y21883D01*
X40420Y22200D02*
Y23100D01*
X49680Y24920D02*
X50200Y24400D01*
Y19830D02*
Y24400D01*
Y19830D02*
X50300Y19730D01*
X50503D02*
Y19730D01*
X43112Y25956D02*
X43516Y25551D01*
Y22241D02*
Y25551D01*
Y22241D02*
X45557Y20200D01*
X41052Y19988D02*
Y21136D01*
Y19988D02*
X41400Y19640D01*
X42200D01*
X43260Y20700D01*
X43112Y25100D02*
X43260Y24952D01*
Y23560D02*
Y24952D01*
X52370Y26075D02*
Y26080D01*
X38848Y23892D02*
X38850Y23890D01*
X38848Y23892D02*
Y24364D01*
X29483Y35600D02*
Y41675D01*
Y35600D02*
X29883Y35200D01*
X35090D01*
X35490Y34800D01*
X35230Y26590D02*
Y27000D01*
X35100Y26460D02*
X35230Y26590D01*
X25270Y20050D02*
X25896Y20676D01*
X37430Y27830D02*
X38846D01*
X37100Y28160D02*
X37430Y27830D01*
X36390Y28160D02*
X37100D01*
X34806Y26460D02*
X35100D01*
X35990Y24680D02*
X36105Y24795D01*
X35990Y19060D02*
X36085D01*
Y18710D02*
Y19060D01*
X36105Y24795D02*
Y25080D01*
X52466Y17954D02*
Y18623D01*
Y17954D02*
X53200Y17220D01*
X47999Y23104D02*
Y23903D01*
Y23104D02*
X49503Y21600D01*
X47289Y21690D02*
X47999Y22400D01*
X46400Y21690D02*
X47289D01*
X46170Y21920D02*
X46400Y21690D01*
X46170Y21920D02*
Y25195D01*
X46975Y26000D01*
Y26580D01*
X40107Y23813D02*
Y24364D01*
Y23813D02*
X40110Y23810D01*
X49534Y26076D02*
Y26580D01*
Y26076D02*
X50000Y25610D01*
X49790Y26580D02*
Y27270D01*
X41564Y23537D02*
X41863D01*
X42126Y23800D01*
Y40000D01*
X41606Y40520D02*
X42126Y40000D01*
X33370Y40520D02*
X41606D01*
X31600Y42290D02*
X33370Y40520D01*
X27600Y42290D02*
X31600D01*
X26920Y41610D02*
X27600Y42290D01*
X30172Y24769D02*
Y27030D01*
X28500Y29800D02*
Y30970D01*
Y25716D02*
Y29800D01*
X32019Y28012D02*
Y28410D01*
X37712Y28204D02*
X38130D01*
X38846D01*
X37363Y17265D02*
X38045D01*
X38305D01*
X37325Y26834D02*
X38800D01*
X48503Y19290D02*
Y19350D01*
Y19730D01*
X51950Y21160D02*
X52940Y20170D01*
X42460Y24000D02*
Y27800D01*
X52170Y24370D02*
X52400D01*
X52840D01*
X47486Y20414D02*
Y20800D01*
X36715Y22400D02*
Y22920D01*
Y25080D01*
X43112Y25100D02*
Y25956D01*
X43260Y20700D02*
Y23560D01*
X43112Y25956D02*
Y27020D01*
X38000Y23222D02*
X38052D01*
X38336D01*
X27200Y27850D02*
X27540D01*
Y28254D02*
X27789D01*
X46801Y18910D02*
X47088Y18623D01*
X46511Y19135D02*
Y19199D01*
X46800Y18910D02*
X46801D01*
X47600D01*
X47999Y22400D02*
Y23104D01*
X49503Y20047D02*
Y21600D01*
X50370Y37750D02*
X50540Y37580D01*
X49738Y37750D02*
X49739Y37750D01*
X50370D01*
X50540Y37120D02*
Y37580D01*
X50330Y36910D02*
X50540Y37120D01*
X50400Y38734D02*
X50750Y38384D01*
X49738Y38143D02*
Y38270D01*
X50750Y31070D02*
Y38384D01*
Y31070D02*
X51730Y30090D01*
X48650Y31560D02*
Y36460D01*
X37250Y20460D02*
X37910Y21120D01*
X37250Y18400D02*
Y20460D01*
X37690Y22300D02*
X37712Y22278D01*
X38336D01*
X39460Y18730D02*
Y18740D01*
X25896Y20676D02*
X32292D01*
X33026Y21410D01*
X29370Y25740D02*
Y27130D01*
X28000Y25330D02*
X28960D01*
X29370Y25740D01*
Y27130D02*
X29600Y27360D01*
X24180Y31636D02*
X24736D01*
X25720Y32620D01*
X38340Y15960D02*
Y16240D01*
X37790Y16790D02*
X38340Y16240D01*
X36200Y16790D02*
X37790D01*
X41340Y12930D02*
X41865Y13455D01*
Y17265D01*
X41340Y11960D02*
Y12930D01*
X43850Y27460D02*
X44096Y27214D01*
Y27020D02*
Y27214D01*
X42670Y24771D02*
Y27367D01*
X42758Y27455D01*
X42895D01*
X42900Y27460D01*
X43850D01*
X26980Y25830D02*
X27194Y25616D01*
X26980Y25830D02*
Y26950D01*
X26410Y28120D02*
Y29600D01*
Y28120D02*
X26840Y27690D01*
Y27090D02*
Y27690D01*
Y27090D02*
X26980Y26950D01*
X39110Y28204D02*
Y37661D01*
X29483Y31560D02*
X29980D01*
X25510Y30500D02*
X26410Y29600D01*
X21960Y30500D02*
X25510D01*
X54882Y15330D02*
Y15748D01*
X54498Y16132D02*
X54882Y15748D01*
X53340Y16132D02*
X54498D01*
X54910Y16544D02*
Y17150D01*
X54498Y16132D02*
X54910Y16544D01*
X53200Y17220D02*
X53723Y17743D01*
X55774D01*
X56367Y17150D01*
Y14906D02*
Y17150D01*
X56370Y17153D02*
Y18800D01*
X56367Y17150D02*
X56370Y17153D01*
X28790Y26364D02*
Y30440D01*
X41830Y19908D02*
Y20910D01*
X35080Y28808D02*
Y29300D01*
X50697Y28433D02*
Y28733D01*
X52950Y25039D02*
Y25650D01*
X52370Y26075D02*
X52840D01*
X47190Y24280D02*
X47231D01*
X31250Y28160D02*
X31350D01*
X21460Y31000D02*
X21960Y30500D01*
X27870Y25460D02*
Y25616D01*
X21460Y31000D02*
Y32958D01*
X32019Y28012D02*
X35163D01*
X26070Y35900D02*
X26770Y35200D01*
X25720Y32620D02*
Y35900D01*
X21060Y37970D02*
X22700D01*
X24060Y41690D02*
X25520D01*
X25810Y41400D01*
Y40890D02*
Y41400D01*
X25770Y40850D02*
X25810Y40890D01*
X23270Y40830D02*
Y40900D01*
X25720Y35900D02*
Y38110D01*
X23880Y39949D02*
X25720Y38110D01*
Y35900D02*
X26070D01*
X23270Y40900D02*
X24060Y41690D01*
X23880Y39949D02*
Y40830D01*
X24170Y38757D02*
X24768Y38160D01*
X25020D01*
X25840Y39720D02*
Y39830D01*
X25101Y40569D02*
X25840Y39830D01*
X25101Y40569D02*
Y40850D01*
X26790Y37590D02*
Y39830D01*
X25770Y40850D02*
X26790Y39830D01*
X26910Y40360D02*
X26920D01*
Y41610D01*
X22700Y37970D02*
X23270Y38540D01*
Y40830D01*
X54510Y26200D02*
X55350D01*
X55770Y25780D01*
Y21400D02*
Y25780D01*
X55493Y21123D02*
X55770Y21400D01*
X55493Y20900D02*
Y21123D01*
X54310Y25133D02*
Y26000D01*
X49020Y27250D02*
X49022Y26580D01*
X46827Y28004D02*
X47231Y27600D01*
Y26580D02*
Y27600D01*
X47743Y26580D02*
Y27107D01*
X47700Y27150D02*
X47743Y27107D01*
X48230Y27450D02*
X48255Y27425D01*
Y26580D02*
Y27425D01*
X48600Y26670D02*
Y27370D01*
X48510Y26580D02*
X48600Y26670D01*
X47940Y27320D02*
Y28570D01*
X47999Y26580D02*
Y27261D01*
X47940Y27320D02*
X47999Y27261D01*
X47940Y28570D02*
X48400Y29030D01*
X21000Y31000D02*
Y34430D01*
X21040Y34390D01*
X27540Y26100D02*
Y27850D01*
X46511Y19199D02*
Y19200D01*
X46801Y18910D01*
X49320Y31000D02*
Y36175D01*
X31483Y35870D02*
Y41675D01*
X35230Y27000D02*
X35490Y27260D01*
Y34800D01*
Y27260D02*
X36390Y28160D01*
X21040Y34390D02*
X21395Y34745D01*
X33026Y21410D02*
Y24769D01*
D36*
Y26460D02*
X34440D01*
X34806D01*
D37*
X49738Y37553D02*
X50157D01*
X50250Y37460D01*
X53500Y29010D02*
X53510Y29020D01*
X53500Y27020D02*
Y29010D01*
X53225Y26745D02*
X53500Y27020D01*
X52840Y26745D02*
X53225D01*
X49738Y38270D02*
Y38340D01*
Y38537D01*
X48950Y36280D02*
X49238Y36568D01*
X49738D01*
X48955Y36765D02*
X49738D01*
X48650Y36460D02*
X48955Y36765D01*
X48950Y35870D02*
Y36280D01*
D38*
X24180Y33140D02*
Y34490D01*
D39*
X23480Y16110D02*
D03*
X23550Y25940D02*
D03*
D40*
X37317Y43104D02*
D03*
X45585D02*
D03*
X37317Y29836D02*
D03*
X45585D02*
D03*
D41*
X32310Y39730D02*
D03*
D42*
X27586Y33844D02*
D03*
D43*
X21060Y37970D02*
D03*
X22005Y38757D02*
D03*
X24170D02*
D03*
X21454Y36277D02*
D03*
X24958D02*
D03*
Y39742D02*
D03*
D44*
X44198Y18623D02*
D03*
D45*
X52466D02*
D03*
D46*
X45080Y28004D02*
D03*
Y27020D02*
D03*
X44096Y28004D02*
D03*
Y27020D02*
D03*
X43112Y28004D02*
D03*
D47*
Y27020D02*
D03*
D48*
X37340Y11960D02*
D03*
D49*
X38340D02*
D03*
X39340D02*
D03*
X40340D02*
D03*
X41340D02*
D03*
X37340Y15960D02*
D03*
X38340D02*
D03*
X39340D02*
D03*
X40340D02*
D03*
X41340D02*
D03*
D50*
X56900Y26570D02*
D03*
Y23696D02*
D03*
D51*
X55384Y25448D02*
D03*
X54912Y25133D02*
D03*
X55384Y24818D02*
D03*
X54912Y25763D02*
D03*
Y24503D02*
D03*
D52*
X36380Y22920D02*
D03*
Y20999D02*
D03*
D53*
X21810Y42971D02*
D03*
Y11121D02*
D03*
X56160D02*
D03*
Y29221D02*
D03*
D54*
X47431Y22840D02*
D03*
X36950Y27860D02*
D03*
X52240Y21490D02*
D03*
X28500Y30970D02*
D03*
X38130Y28204D02*
D03*
X39110Y37661D02*
D03*
X41830Y27960D02*
D03*
X48880Y19350D02*
D03*
X37325Y26834D02*
D03*
X42760Y24200D02*
D03*
X37910Y19090D02*
D03*
X43420Y26240D02*
D03*
X43810Y24229D02*
D03*
X51423Y19250D02*
D03*
X31483Y33630D02*
D03*
X50240D02*
D03*
X30483Y32920D02*
D03*
X48360D02*
D03*
X29980Y31560D02*
D03*
X48650D02*
D03*
X40520Y18560D02*
D03*
X41400Y17940D02*
D03*
X38520Y20360D02*
D03*
X46463Y22050D02*
D03*
X52950Y25650D02*
D03*
X51230Y27380D02*
D03*
X27550Y27880D02*
D03*
X41030Y23750D02*
D03*
X50330Y36910D02*
D03*
X40422Y25080D02*
D03*
X42410Y21730D02*
D03*
X55144Y19100D02*
D03*
X33150Y29420D02*
D03*
X28190Y29610D02*
D03*
X28790Y30440D02*
D03*
X31010Y33270D02*
D03*
X44873D02*
D03*
X28210Y27610D02*
D03*
X32440Y28380D02*
D03*
X50240Y28740D02*
D03*
X51600Y21530D02*
D03*
X49240Y37661D02*
D03*
X24180Y33140D02*
D03*
X42240Y19112D02*
D03*
X47487Y25360D02*
D03*
X40130Y21890D02*
D03*
X41030Y21680D02*
D03*
X41390Y26570D02*
D03*
X53340Y16132D02*
D03*
X39060Y23490D02*
D03*
X41110Y25230D02*
D03*
X34010Y26834D02*
D03*
X52430Y27490D02*
D03*
X36940Y14010D02*
D03*
X46940Y23170D02*
D03*
X34790Y29130D02*
D03*
X40420Y23100D02*
D03*
X49680Y24920D02*
D03*
X43260Y23560D02*
D03*
X52370Y26080D02*
D03*
X38850Y23890D02*
D03*
X25270Y20050D02*
D03*
X35960Y24580D02*
D03*
X40110Y23810D02*
D03*
X50000Y25610D02*
D03*
X49790Y27270D02*
D03*
X30172Y27030D02*
D03*
X21000Y31000D02*
D03*
X50250Y37460D02*
D03*
X53510Y29020D02*
D03*
X37910Y21120D02*
D03*
X37690Y22300D02*
D03*
X39460Y18730D02*
D03*
X25020Y38160D02*
D03*
X25840Y39720D02*
D03*
X26910Y40360D02*
D03*
X54300Y25133D02*
D03*
X49140Y27300D02*
D03*
X47700Y27150D02*
D03*
X48230Y27450D02*
D03*
X48600Y27370D02*
D03*
X48950Y35870D02*
D03*
X31483D02*
D03*
M02*
